<svg width="318" height="53" viewBox="0 0 318 53" fill="none" xmlns="http://www.w3.org/2000/svg">
<path d="M67.6833 38.876H74.6767V9.57601H67.6833V38.876ZM79.0574 38.876H85.8096V9.57601H79.0574V38.876ZM89.8119 38.876H96.5641V9.57601H89.8119V38.876ZM109.69 39.2377C113.146 39.2377 116.322 37.63 117.648 35.0979H117.969L118.251 38.876H124.762V17.3331H117.969V28.0241C117.969 31.6414 115.638 34.1333 112.021 34.1333C108.404 34.1333 107.118 31.8826 107.118 27.9839V17.3331H100.325V29.1897C100.325 36.6654 104.063 39.2377 109.69 39.2377ZM138.528 39.2779C146.325 39.2779 149.982 36.5448 149.982 32.4051C149.982 27.7026 147.209 26.3361 139.573 25.6528C135.714 25.2911 134.187 24.9695 134.187 23.3217C134.187 21.714 135.955 20.9905 138.568 20.9905C140.979 20.9905 142.667 21.915 142.909 23.8442H149.299C148.857 19.3829 144.838 16.9311 138.608 16.9311C131.655 16.9311 127.636 19.6642 127.636 23.8844C127.636 28.1447 130.529 29.5916 138.126 30.3151C142.105 30.6768 143.311 30.9983 143.311 32.807C143.311 34.4549 141.622 35.1783 138.729 35.1783C135.433 35.1783 133.705 34.0931 133.504 32.0433H126.912C127.194 36.5046 131.132 39.2779 138.528 39.2779ZM160.86 38.876H167.009V33.1285H163.633C162.307 33.1285 161.664 32.7266 161.664 31.4003V22.4374H167.009V17.3331H161.664V10.5808L154.992 11.8669V17.3331H150.972V22.4374H154.992V33.5304C154.992 37.1879 157.283 38.876 160.86 38.876ZM169.96 38.876H176.713V28.627C176.793 24.6882 178.843 23.0403 182.299 23.0403C182.902 23.0403 183.626 23.1207 184.229 23.2011V17.1321C183.746 17.0517 183.184 17.0115 182.46 17.0115C179.606 17.0115 177.476 18.4584 176.592 20.7494H176.311L176.07 17.3331H169.96V38.876ZM195.739 39.2779C199.276 39.2779 202.331 37.7908 203.657 35.4195H203.938V38.876H210.731V17.3331H204.3L204.099 20.7092H203.818C202.572 18.4986 199.879 16.9713 195.739 16.9713C189.389 16.9713 185.128 21.2719 185.128 28.1045C185.128 34.9372 189.389 39.2779 195.739 39.2779ZM197.829 34.1333C194.292 34.1333 191.961 31.9228 191.961 28.1045C191.961 24.2461 194.332 22.1159 197.829 22.1159C201.647 22.1159 203.898 24.5274 203.898 27.5418V28.5868C203.898 31.6816 201.647 34.1333 197.829 34.1333ZM223.463 38.876H229.613V33.1285H226.237C224.91 33.1285 224.267 32.7266 224.267 31.4003V22.4374H229.613V17.3331H224.267V10.5808L217.595 11.8669V17.3331H213.576V22.4374H217.595V33.5304C217.595 37.1879 219.886 38.876 223.463 38.876ZM244.268 39.2779C252.106 39.2779 257.21 35.0979 257.21 28.1045C257.21 21.0307 252.066 16.9311 244.268 16.9311C236.431 16.9311 231.286 21.1111 231.286 28.1045C231.286 35.1381 236.471 39.2779 244.268 39.2779ZM244.268 34.0931C240.33 34.0931 238.079 31.762 238.079 28.1045C238.079 24.447 240.33 22.1159 244.268 22.1159C248.207 22.1159 250.458 24.4069 250.458 28.1045C250.458 31.762 248.167 34.0931 244.268 34.0931ZM260.353 38.876H267.105V28.627C267.186 24.6882 269.236 23.0403 272.692 23.0403C273.295 23.0403 274.018 23.1207 274.621 23.2011V17.1321C274.139 17.0517 273.576 17.0115 272.853 17.0115C269.999 17.0115 267.869 18.4584 266.985 20.7494H266.703L266.462 17.3331H260.353V38.876ZM283.896 38.876H292.216L300.174 28.6672H300.455L308.212 38.876H316.974L305.158 23.5226L316.291 9.57601H307.77L300.696 19.1015H300.375L293.382 9.57601H284.66L295.954 23.7236L283.896 38.876Z" fill="white"/>
<path d="M10.9759 28.1463C14.7526 27.4989 18.6085 28.7248 21.318 31.4343V31.4343C24.0275 34.1437 25.2534 37.9997 24.606 41.7764L23.2746 49.5435L3.20878 29.4777L10.9759 28.1463Z" fill="white"/>
<path d="M24.6057 10.976C25.2531 14.7526 24.0272 18.6086 21.3177 21.3181V21.3181C18.6083 24.0275 14.7523 25.2534 10.9756 24.606L3.20852 23.2747L23.2743 3.20884L24.6057 10.976Z" fill="white"/>
<path d="M41.7759 24.6057C37.9993 25.253 34.1433 24.0271 31.4338 21.3177V21.3177C28.7244 18.6082 27.4985 14.7523 28.1458 10.9756L29.4772 3.20846L49.543 23.2743L41.7759 24.6057Z" fill="white"/>
<path d="M28.146 41.776C27.4987 37.9993 28.7246 34.1434 31.434 31.4339V31.4339C34.1435 28.7244 37.9995 27.4985 41.7761 28.1459L49.5432 29.4773L29.4774 49.5431L28.146 41.776Z" fill="white"/>
</svg>
